<svg width="99" height="146" viewBox="0 0 99 146" fill="none" xmlns="http://www.w3.org/2000/svg">
<path d="M49.6 145.2C35.0667 145.2 23.4 141.6 14.6 134.4C5.93333 127.067 1.06667 117.6 0 106L14.2 105C15.4 113.667 19.1333 120.333 25.4 125C31.6667 129.533 39.7333 131.8 49.6 131.8C60.2667 131.8 68.7333 128.667 75 122.4C81.4 116.133 84.6 107.467 84.6 96.4C84.6 85.7333 81.5333 77.1333 75.4 70.6C69.2667 63.9333 60.5333 60.6 49.2 60.6C42.1333 60.6 35.6667 62.2667 29.8 65.6C24.0667 68.8 19.8667 73.2 17.2 78.8H2.4L11.6 0H89.6V13.2H24L18 62.2C21.7333 57.5333 26.5333 53.9333 32.4 51.4C38.4 48.8667 44.7333 47.6 51.4 47.6C61.1333 47.6 69.5333 49.7333 76.6 54C83.6667 58.1333 89.1333 63.9333 93 71.4C97 78.7333 99 87.0667 99 96.4C99 106 96.8667 114.467 92.6 121.8C88.4667 129.133 82.6667 134.867 75.2 139C67.8667 143.133 59.3333 145.2 49.6 145.2Z" fill="#FF1717"/>
</svg>
