<svg width="165" height="238" viewBox="0 0 165 238" fill="none" xmlns="http://www.w3.org/2000/svg">
<path d="M163.025 1V149.298C163.025 167.044 159.675 182.568 152.938 195.841L152.935 195.847C146.2 208.897 136.736 219.029 124.552 226.22L124.553 226.221C112.568 233.42 98.4334 237 82.1865 237C65.5151 237 51.0603 233.422 38.8613 226.225L38.8525 226.22L38.8428 226.214C26.8789 218.809 17.6328 208.678 11.1133 195.841L11.1104 195.835C4.59605 182.791 1.24172 168.027 1.02539 151.566L1.0127 150.606L1.97168 150.555L44.1445 148.299L45.1846 148.243L45.1982 149.285C45.4116 165.941 48.8263 178.254 55.2832 186.387C61.7255 194.501 70.6515 198.578 82.1865 198.578C93.9427 198.578 102.973 194.496 109.411 186.387C115.869 178.038 119.174 165.725 119.174 149.298V1H163.025Z" fill="white" stroke="black" stroke-width="2"/>
</svg>
