<svg width="170" height="177" viewBox="0 0 170 177" fill="none" xmlns="http://www.w3.org/2000/svg">
<path d="M84.75 0.75C84.75 0.75 0.75 42.75 0.75 98.75C0.749083 106.813 3.06937 114.707 7.43371 121.487C11.798 128.267 18.0219 133.648 25.3619 136.986C32.702 140.325 40.8478 141.479 48.8265 140.313C56.8051 139.146 64.2793 135.708 70.3563 130.407L56.75 175.75H112.75L99.1437 130.407C105.221 135.708 112.695 139.146 120.674 140.313C128.652 141.479 136.798 140.325 144.138 136.986C151.478 133.648 157.702 128.267 162.066 121.487C166.431 114.707 168.751 106.813 168.75 98.75C168.75 42.75 84.75 0.75 84.75 0.75Z" fill="white" stroke="black" stroke-width="1.5" stroke-linecap="round" stroke-linejoin="round"/>
</svg>
