<svg width="67" height="18" viewBox="0 0 67 18" fill="none" xmlns="http://www.w3.org/2000/svg">
<path fill-rule="evenodd" clip-rule="evenodd" d="M0 7.19545C0 6.4524 0.394222 5.76243 1.03862 5.39848L10.3938 0V10.8045C10.3938 11.5476 9.99957 12.23 9.35517 12.6015L0 18V7.19545ZM8.89272 10.4558V3.50295C8.89272 3.10868 8.4606 2.85088 8.11186 3.0556L2.06966 6.54339L8.89272 10.4558ZM1.50865 7.57456V14.4971C1.50865 14.8913 1.94078 15.1491 2.28952 14.9444L8.30139 11.4718L1.50865 7.57456ZM19.802 15.1112C18.8392 15.1112 18.0053 14.9444 17.3154 14.5956C16.6255 14.2544 16.0948 13.7767 15.7158 13.1702C15.3443 12.5636 15.1396 11.866 15.1093 11.0775H16.7317C16.7923 11.8585 17.0956 12.4878 17.6566 12.9655C18.2176 13.4431 18.9378 13.6858 19.8172 13.6858C20.5905 13.6858 21.2273 13.519 21.7125 13.1702C22.2053 12.829 22.4479 12.3361 22.4479 11.6917C22.4479 11.3353 22.3645 11.0396 22.2053 10.8045C22.0385 10.5695 21.8186 10.3799 21.523 10.2435C21.2273 10.107 20.8937 9.99326 20.5147 9.90227C20.128 9.81129 19.7111 9.72788 19.2486 9.64448C18.7786 9.5535 18.3085 9.43976 17.8537 9.30328C17.3912 9.16681 16.9818 8.97725 16.6179 8.73462C16.254 8.492 15.9584 8.18113 15.7461 7.79444C15.5263 7.40775 15.4201 6.90733 15.4201 6.31592C15.4201 5.62595 15.5869 5.02696 15.9281 4.51895C16.2692 4.01095 16.7468 3.6091 17.3609 3.31339C17.975 3.01769 18.6876 2.88121 19.4836 2.88121C20.3706 2.88121 21.1363 3.04044 21.7807 3.34372C22.4251 3.65459 22.9331 4.08677 23.2894 4.63269C23.6457 5.1786 23.8504 5.82308 23.8959 6.55855H22.2432C22.1749 5.88374 21.8944 5.34541 21.3941 4.93597C20.8937 4.53412 20.2493 4.32182 19.4685 4.32182C18.7407 4.32182 18.1418 4.48104 17.6793 4.80708C17.2169 5.13311 16.9894 5.6032 16.9894 6.22494C16.9894 6.56613 17.0728 6.84667 17.232 7.07414C17.3988 7.29402 17.6187 7.48357 17.9067 7.62763C18.1948 7.77169 18.5284 7.87784 18.9075 7.96125C19.0894 7.99916 19.2865 8.03707 19.4836 8.08256C19.6959 8.12805 19.9233 8.17355 20.1508 8.21904C20.636 8.29486 21.106 8.40859 21.5685 8.54507C22.0309 8.68155 22.4479 8.87868 22.8269 9.11373C23.206 9.36394 23.4941 9.68239 23.7139 10.0691C23.9262 10.4558 24.0323 10.9486 24.0323 11.5324C24.0323 12.23 23.8504 12.8441 23.5017 13.3825C23.1529 13.9208 22.6526 14.3378 22.0233 14.6411C21.3941 14.9444 20.6511 15.096 19.8096 15.096L19.802 15.1112ZM49.9448 2.99495H51.4231V15.0051H49.9448V2.99495ZM24.9497 10.3345C24.9497 7.46841 26.7767 5.5198 29.4453 5.5198C31.7045 5.5198 33.1297 6.80876 33.5088 8.86352H31.9547C31.6893 7.61247 30.7796 6.86184 29.4301 6.86184C27.6637 6.86184 26.4659 8.29486 26.4659 10.342C26.4659 12.3816 27.6561 13.7767 29.4301 13.7767C30.7493 13.7767 31.6514 13.0034 31.9395 11.8054H33.5088C33.1449 13.8298 31.6514 15.1112 29.4074 15.1112C26.7161 15.1188 24.9497 13.2536 24.9497 10.3345ZM57.0256 5.5198C54.4177 5.5198 52.6513 7.46082 52.6513 10.3193L52.6589 10.3345C52.6589 13.2005 54.4632 15.1339 57.2303 15.1339C59.3606 15.1339 60.8769 13.754 61.2408 11.8812H59.7397C59.4364 13.0868 58.4281 13.7919 57.1242 13.7919C55.3653 13.7919 54.2661 12.5409 54.213 10.7591V10.6302H61.3621C61.3848 10.4103 61.4 10.1904 61.4 9.98568C61.3166 7.18787 59.626 5.5198 57.0256 5.5198ZM57.0332 6.83909C58.5722 6.83909 59.6487 7.74136 59.8003 9.36394H54.2888C54.4329 7.83235 55.6838 6.83909 57.0332 6.83909ZM62.6736 2.99495H64.1519V5.62595H66.4794V7.0059H64.1519V12.5409C64.1519 13.337 64.4173 13.6251 65.1602 13.6251H66.7674V15.0051H65.0693C63.3028 15.0051 62.666 14.2089 62.666 12.5636V2.99495H62.6736ZM34.7066 8.43892C34.9265 6.59646 36.3821 5.51222 38.6109 5.51222C40.9611 5.51222 42.3106 6.71019 42.3106 8.90143V15.0051H40.8322V13.3901C40.1802 14.5198 39.0734 15.1036 37.6178 15.1112C36.5868 15.1112 35.7604 14.77 35.3055 14.353C35.0781 14.1407 34.8886 13.8905 34.7521 13.6099C34.4868 13.0413 34.4185 12.6167 34.4185 12.1997C34.4185 11.7144 34.5702 10.888 35.2828 10.2738C35.7301 9.8492 36.5868 9.47009 37.6936 9.3412L40.8322 9.00758V8.80286C40.8322 7.58972 39.9831 6.85425 38.5427 6.85425C37.2387 6.85425 36.3745 7.47599 36.1925 8.43134H34.7066V8.43892ZM37.8528 13.8526C38.9294 13.8526 39.8239 13.3067 40.2409 12.5864H40.2485C40.6806 11.8433 40.8322 11.2898 40.8322 10.2586L38.3001 10.5316C37.4283 10.615 36.8445 10.8121 36.4958 11.1382C36.1471 11.4642 35.9575 11.8585 35.9575 12.2376C35.9575 13.2384 36.7763 13.8526 37.8528 13.8526ZM45.2672 7.09688C45.8131 6.14153 46.738 5.62595 47.7917 5.62595H48.6636V7.09688H47.8145C46.3058 7.09688 45.3582 8.12805 45.3582 9.85678V15.0051H43.8799V5.62595H45.2748V7.09688H45.2672Z" fill="#FF4747"/>
</svg>
